<svg xmlns="http://www.w3.org/2000/svg" xmlns:xlink="http://www.w3.org/1999/xlink" version="1.1" width="150px" height="150px" viewBox="0 0 150 150"><defs><rect id="r0" width="3" height="3" fill="#000000"/></defs><rect x="0" y="0" width="150" height="150" fill="#fefefe"/><use x="25" y="25" xlink:href="#r0"/><use x="28" y="25" xlink:href="#r0"/><use x="31" y="25" xlink:href="#r0"/><use x="34" y="25" xlink:href="#r0"/><use x="37" y="25" xlink:href="#r0"/><use x="40" y="25" xlink:href="#r0"/><use x="43" y="25" xlink:href="#r0"/><use x="52" y="25" xlink:href="#r0"/><use x="70" y="25" xlink:href="#r0"/><use x="73" y="25" xlink:href="#r0"/><use x="76" y="25" xlink:href="#r0"/><use x="79" y="25" xlink:href="#r0"/><use x="82" y="25" xlink:href="#r0"/><use x="94" y="25" xlink:href="#r0"/><use x="97" y="25" xlink:href="#r0"/><use x="103" y="25" xlink:href="#r0"/><use x="106" y="25" xlink:href="#r0"/><use x="109" y="25" xlink:href="#r0"/><use x="112" y="25" xlink:href="#r0"/><use x="115" y="25" xlink:href="#r0"/><use x="118" y="25" xlink:href="#r0"/><use x="121" y="25" xlink:href="#r0"/><use x="25" y="28" xlink:href="#r0"/><use x="43" y="28" xlink:href="#r0"/><use x="49" y="28" xlink:href="#r0"/><use x="52" y="28" xlink:href="#r0"/><use x="58" y="28" xlink:href="#r0"/><use x="61" y="28" xlink:href="#r0"/><use x="76" y="28" xlink:href="#r0"/><use x="91" y="28" xlink:href="#r0"/><use x="103" y="28" xlink:href="#r0"/><use x="121" y="28" xlink:href="#r0"/><use x="25" y="31" xlink:href="#r0"/><use x="31" y="31" xlink:href="#r0"/><use x="34" y="31" xlink:href="#r0"/><use x="37" y="31" xlink:href="#r0"/><use x="43" y="31" xlink:href="#r0"/><use x="52" y="31" xlink:href="#r0"/><use x="55" y="31" xlink:href="#r0"/><use x="58" y="31" xlink:href="#r0"/><use x="67" y="31" xlink:href="#r0"/><use x="73" y="31" xlink:href="#r0"/><use x="79" y="31" xlink:href="#r0"/><use x="82" y="31" xlink:href="#r0"/><use x="88" y="31" xlink:href="#r0"/><use x="91" y="31" xlink:href="#r0"/><use x="94" y="31" xlink:href="#r0"/><use x="97" y="31" xlink:href="#r0"/><use x="103" y="31" xlink:href="#r0"/><use x="109" y="31" xlink:href="#r0"/><use x="112" y="31" xlink:href="#r0"/><use x="115" y="31" xlink:href="#r0"/><use x="121" y="31" xlink:href="#r0"/><use x="25" y="34" xlink:href="#r0"/><use x="31" y="34" xlink:href="#r0"/><use x="34" y="34" xlink:href="#r0"/><use x="37" y="34" xlink:href="#r0"/><use x="43" y="34" xlink:href="#r0"/><use x="49" y="34" xlink:href="#r0"/><use x="52" y="34" xlink:href="#r0"/><use x="58" y="34" xlink:href="#r0"/><use x="85" y="34" xlink:href="#r0"/><use x="91" y="34" xlink:href="#r0"/><use x="94" y="34" xlink:href="#r0"/><use x="97" y="34" xlink:href="#r0"/><use x="103" y="34" xlink:href="#r0"/><use x="109" y="34" xlink:href="#r0"/><use x="112" y="34" xlink:href="#r0"/><use x="115" y="34" xlink:href="#r0"/><use x="121" y="34" xlink:href="#r0"/><use x="25" y="37" xlink:href="#r0"/><use x="31" y="37" xlink:href="#r0"/><use x="34" y="37" xlink:href="#r0"/><use x="37" y="37" xlink:href="#r0"/><use x="43" y="37" xlink:href="#r0"/><use x="55" y="37" xlink:href="#r0"/><use x="61" y="37" xlink:href="#r0"/><use x="64" y="37" xlink:href="#r0"/><use x="67" y="37" xlink:href="#r0"/><use x="70" y="37" xlink:href="#r0"/><use x="82" y="37" xlink:href="#r0"/><use x="88" y="37" xlink:href="#r0"/><use x="94" y="37" xlink:href="#r0"/><use x="103" y="37" xlink:href="#r0"/><use x="109" y="37" xlink:href="#r0"/><use x="112" y="37" xlink:href="#r0"/><use x="115" y="37" xlink:href="#r0"/><use x="121" y="37" xlink:href="#r0"/><use x="25" y="40" xlink:href="#r0"/><use x="43" y="40" xlink:href="#r0"/><use x="49" y="40" xlink:href="#r0"/><use x="55" y="40" xlink:href="#r0"/><use x="64" y="40" xlink:href="#r0"/><use x="67" y="40" xlink:href="#r0"/><use x="70" y="40" xlink:href="#r0"/><use x="85" y="40" xlink:href="#r0"/><use x="88" y="40" xlink:href="#r0"/><use x="91" y="40" xlink:href="#r0"/><use x="103" y="40" xlink:href="#r0"/><use x="121" y="40" xlink:href="#r0"/><use x="25" y="43" xlink:href="#r0"/><use x="28" y="43" xlink:href="#r0"/><use x="31" y="43" xlink:href="#r0"/><use x="34" y="43" xlink:href="#r0"/><use x="37" y="43" xlink:href="#r0"/><use x="40" y="43" xlink:href="#r0"/><use x="43" y="43" xlink:href="#r0"/><use x="49" y="43" xlink:href="#r0"/><use x="55" y="43" xlink:href="#r0"/><use x="61" y="43" xlink:href="#r0"/><use x="67" y="43" xlink:href="#r0"/><use x="73" y="43" xlink:href="#r0"/><use x="79" y="43" xlink:href="#r0"/><use x="85" y="43" xlink:href="#r0"/><use x="91" y="43" xlink:href="#r0"/><use x="97" y="43" xlink:href="#r0"/><use x="103" y="43" xlink:href="#r0"/><use x="106" y="43" xlink:href="#r0"/><use x="109" y="43" xlink:href="#r0"/><use x="112" y="43" xlink:href="#r0"/><use x="115" y="43" xlink:href="#r0"/><use x="118" y="43" xlink:href="#r0"/><use x="121" y="43" xlink:href="#r0"/><use x="61" y="46" xlink:href="#r0"/><use x="64" y="46" xlink:href="#r0"/><use x="70" y="46" xlink:href="#r0"/><use x="82" y="46" xlink:href="#r0"/><use x="85" y="46" xlink:href="#r0"/><use x="88" y="46" xlink:href="#r0"/><use x="91" y="46" xlink:href="#r0"/><use x="97" y="46" xlink:href="#r0"/><use x="25" y="49" xlink:href="#r0"/><use x="28" y="49" xlink:href="#r0"/><use x="31" y="49" xlink:href="#r0"/><use x="34" y="49" xlink:href="#r0"/><use x="37" y="49" xlink:href="#r0"/><use x="43" y="49" xlink:href="#r0"/><use x="46" y="49" xlink:href="#r0"/><use x="49" y="49" xlink:href="#r0"/><use x="52" y="49" xlink:href="#r0"/><use x="55" y="49" xlink:href="#r0"/><use x="61" y="49" xlink:href="#r0"/><use x="67" y="49" xlink:href="#r0"/><use x="70" y="49" xlink:href="#r0"/><use x="73" y="49" xlink:href="#r0"/><use x="82" y="49" xlink:href="#r0"/><use x="91" y="49" xlink:href="#r0"/><use x="97" y="49" xlink:href="#r0"/><use x="100" y="49" xlink:href="#r0"/><use x="106" y="49" xlink:href="#r0"/><use x="112" y="49" xlink:href="#r0"/><use x="118" y="49" xlink:href="#r0"/><use x="25" y="52" xlink:href="#r0"/><use x="31" y="52" xlink:href="#r0"/><use x="34" y="52" xlink:href="#r0"/><use x="52" y="52" xlink:href="#r0"/><use x="76" y="52" xlink:href="#r0"/><use x="79" y="52" xlink:href="#r0"/><use x="82" y="52" xlink:href="#r0"/><use x="88" y="52" xlink:href="#r0"/><use x="94" y="52" xlink:href="#r0"/><use x="103" y="52" xlink:href="#r0"/><use x="118" y="52" xlink:href="#r0"/><use x="121" y="52" xlink:href="#r0"/><use x="25" y="55" xlink:href="#r0"/><use x="28" y="55" xlink:href="#r0"/><use x="31" y="55" xlink:href="#r0"/><use x="34" y="55" xlink:href="#r0"/><use x="40" y="55" xlink:href="#r0"/><use x="43" y="55" xlink:href="#r0"/><use x="49" y="55" xlink:href="#r0"/><use x="52" y="55" xlink:href="#r0"/><use x="58" y="55" xlink:href="#r0"/><use x="61" y="55" xlink:href="#r0"/><use x="70" y="55" xlink:href="#r0"/><use x="88" y="55" xlink:href="#r0"/><use x="91" y="55" xlink:href="#r0"/><use x="97" y="55" xlink:href="#r0"/><use x="103" y="55" xlink:href="#r0"/><use x="109" y="55" xlink:href="#r0"/><use x="25" y="58" xlink:href="#r0"/><use x="31" y="58" xlink:href="#r0"/><use x="37" y="58" xlink:href="#r0"/><use x="46" y="58" xlink:href="#r0"/><use x="52" y="58" xlink:href="#r0"/><use x="55" y="58" xlink:href="#r0"/><use x="58" y="58" xlink:href="#r0"/><use x="67" y="58" xlink:href="#r0"/><use x="88" y="58" xlink:href="#r0"/><use x="100" y="58" xlink:href="#r0"/><use x="106" y="58" xlink:href="#r0"/><use x="115" y="58" xlink:href="#r0"/><use x="37" y="61" xlink:href="#r0"/><use x="40" y="61" xlink:href="#r0"/><use x="43" y="61" xlink:href="#r0"/><use x="52" y="61" xlink:href="#r0"/><use x="58" y="61" xlink:href="#r0"/><use x="70" y="61" xlink:href="#r0"/><use x="73" y="61" xlink:href="#r0"/><use x="76" y="61" xlink:href="#r0"/><use x="79" y="61" xlink:href="#r0"/><use x="85" y="61" xlink:href="#r0"/><use x="91" y="61" xlink:href="#r0"/><use x="109" y="61" xlink:href="#r0"/><use x="28" y="64" xlink:href="#r0"/><use x="37" y="64" xlink:href="#r0"/><use x="40" y="64" xlink:href="#r0"/><use x="49" y="64" xlink:href="#r0"/><use x="55" y="64" xlink:href="#r0"/><use x="61" y="64" xlink:href="#r0"/><use x="64" y="64" xlink:href="#r0"/><use x="67" y="64" xlink:href="#r0"/><use x="76" y="64" xlink:href="#r0"/><use x="79" y="64" xlink:href="#r0"/><use x="82" y="64" xlink:href="#r0"/><use x="88" y="64" xlink:href="#r0"/><use x="94" y="64" xlink:href="#r0"/><use x="103" y="64" xlink:href="#r0"/><use x="112" y="64" xlink:href="#r0"/><use x="118" y="64" xlink:href="#r0"/><use x="121" y="64" xlink:href="#r0"/><use x="25" y="67" xlink:href="#r0"/><use x="28" y="67" xlink:href="#r0"/><use x="34" y="67" xlink:href="#r0"/><use x="40" y="67" xlink:href="#r0"/><use x="43" y="67" xlink:href="#r0"/><use x="49" y="67" xlink:href="#r0"/><use x="55" y="67" xlink:href="#r0"/><use x="64" y="67" xlink:href="#r0"/><use x="67" y="67" xlink:href="#r0"/><use x="70" y="67" xlink:href="#r0"/><use x="76" y="67" xlink:href="#r0"/><use x="88" y="67" xlink:href="#r0"/><use x="100" y="67" xlink:href="#r0"/><use x="103" y="67" xlink:href="#r0"/><use x="112" y="67" xlink:href="#r0"/><use x="118" y="67" xlink:href="#r0"/><use x="46" y="70" xlink:href="#r0"/><use x="61" y="70" xlink:href="#r0"/><use x="64" y="70" xlink:href="#r0"/><use x="70" y="70" xlink:href="#r0"/><use x="82" y="70" xlink:href="#r0"/><use x="88" y="70" xlink:href="#r0"/><use x="91" y="70" xlink:href="#r0"/><use x="103" y="70" xlink:href="#r0"/><use x="106" y="70" xlink:href="#r0"/><use x="109" y="70" xlink:href="#r0"/><use x="115" y="70" xlink:href="#r0"/><use x="25" y="73" xlink:href="#r0"/><use x="34" y="73" xlink:href="#r0"/><use x="40" y="73" xlink:href="#r0"/><use x="43" y="73" xlink:href="#r0"/><use x="46" y="73" xlink:href="#r0"/><use x="52" y="73" xlink:href="#r0"/><use x="55" y="73" xlink:href="#r0"/><use x="61" y="73" xlink:href="#r0"/><use x="67" y="73" xlink:href="#r0"/><use x="70" y="73" xlink:href="#r0"/><use x="73" y="73" xlink:href="#r0"/><use x="85" y="73" xlink:href="#r0"/><use x="91" y="73" xlink:href="#r0"/><use x="97" y="73" xlink:href="#r0"/><use x="100" y="73" xlink:href="#r0"/><use x="106" y="73" xlink:href="#r0"/><use x="109" y="73" xlink:href="#r0"/><use x="118" y="73" xlink:href="#r0"/><use x="28" y="76" xlink:href="#r0"/><use x="31" y="76" xlink:href="#r0"/><use x="34" y="76" xlink:href="#r0"/><use x="40" y="76" xlink:href="#r0"/><use x="46" y="76" xlink:href="#r0"/><use x="49" y="76" xlink:href="#r0"/><use x="79" y="76" xlink:href="#r0"/><use x="82" y="76" xlink:href="#r0"/><use x="88" y="76" xlink:href="#r0"/><use x="91" y="76" xlink:href="#r0"/><use x="94" y="76" xlink:href="#r0"/><use x="100" y="76" xlink:href="#r0"/><use x="103" y="76" xlink:href="#r0"/><use x="112" y="76" xlink:href="#r0"/><use x="118" y="76" xlink:href="#r0"/><use x="121" y="76" xlink:href="#r0"/><use x="25" y="79" xlink:href="#r0"/><use x="28" y="79" xlink:href="#r0"/><use x="37" y="79" xlink:href="#r0"/><use x="43" y="79" xlink:href="#r0"/><use x="46" y="79" xlink:href="#r0"/><use x="55" y="79" xlink:href="#r0"/><use x="58" y="79" xlink:href="#r0"/><use x="61" y="79" xlink:href="#r0"/><use x="70" y="79" xlink:href="#r0"/><use x="100" y="79" xlink:href="#r0"/><use x="109" y="79" xlink:href="#r0"/><use x="112" y="79" xlink:href="#r0"/><use x="118" y="79" xlink:href="#r0"/><use x="25" y="82" xlink:href="#r0"/><use x="28" y="82" xlink:href="#r0"/><use x="31" y="82" xlink:href="#r0"/><use x="37" y="82" xlink:href="#r0"/><use x="40" y="82" xlink:href="#r0"/><use x="49" y="82" xlink:href="#r0"/><use x="52" y="82" xlink:href="#r0"/><use x="55" y="82" xlink:href="#r0"/><use x="58" y="82" xlink:href="#r0"/><use x="67" y="82" xlink:href="#r0"/><use x="79" y="82" xlink:href="#r0"/><use x="85" y="82" xlink:href="#r0"/><use x="88" y="82" xlink:href="#r0"/><use x="94" y="82" xlink:href="#r0"/><use x="97" y="82" xlink:href="#r0"/><use x="106" y="82" xlink:href="#r0"/><use x="112" y="82" xlink:href="#r0"/><use x="115" y="82" xlink:href="#r0"/><use x="43" y="85" xlink:href="#r0"/><use x="46" y="85" xlink:href="#r0"/><use x="58" y="85" xlink:href="#r0"/><use x="70" y="85" xlink:href="#r0"/><use x="73" y="85" xlink:href="#r0"/><use x="76" y="85" xlink:href="#r0"/><use x="85" y="85" xlink:href="#r0"/><use x="91" y="85" xlink:href="#r0"/><use x="97" y="85" xlink:href="#r0"/><use x="100" y="85" xlink:href="#r0"/><use x="109" y="85" xlink:href="#r0"/><use x="118" y="85" xlink:href="#r0"/><use x="25" y="88" xlink:href="#r0"/><use x="34" y="88" xlink:href="#r0"/><use x="49" y="88" xlink:href="#r0"/><use x="61" y="88" xlink:href="#r0"/><use x="64" y="88" xlink:href="#r0"/><use x="67" y="88" xlink:href="#r0"/><use x="76" y="88" xlink:href="#r0"/><use x="79" y="88" xlink:href="#r0"/><use x="82" y="88" xlink:href="#r0"/><use x="88" y="88" xlink:href="#r0"/><use x="94" y="88" xlink:href="#r0"/><use x="103" y="88" xlink:href="#r0"/><use x="112" y="88" xlink:href="#r0"/><use x="115" y="88" xlink:href="#r0"/><use x="118" y="88" xlink:href="#r0"/><use x="121" y="88" xlink:href="#r0"/><use x="25" y="91" xlink:href="#r0"/><use x="31" y="91" xlink:href="#r0"/><use x="43" y="91" xlink:href="#r0"/><use x="49" y="91" xlink:href="#r0"/><use x="52" y="91" xlink:href="#r0"/><use x="55" y="91" xlink:href="#r0"/><use x="64" y="91" xlink:href="#r0"/><use x="67" y="91" xlink:href="#r0"/><use x="70" y="91" xlink:href="#r0"/><use x="73" y="91" xlink:href="#r0"/><use x="79" y="91" xlink:href="#r0"/><use x="85" y="91" xlink:href="#r0"/><use x="88" y="91" xlink:href="#r0"/><use x="100" y="91" xlink:href="#r0"/><use x="109" y="91" xlink:href="#r0"/><use x="115" y="91" xlink:href="#r0"/><use x="118" y="91" xlink:href="#r0"/><use x="25" y="94" xlink:href="#r0"/><use x="31" y="94" xlink:href="#r0"/><use x="49" y="94" xlink:href="#r0"/><use x="52" y="94" xlink:href="#r0"/><use x="61" y="94" xlink:href="#r0"/><use x="64" y="94" xlink:href="#r0"/><use x="73" y="94" xlink:href="#r0"/><use x="85" y="94" xlink:href="#r0"/><use x="88" y="94" xlink:href="#r0"/><use x="91" y="94" xlink:href="#r0"/><use x="94" y="94" xlink:href="#r0"/><use x="100" y="94" xlink:href="#r0"/><use x="109" y="94" xlink:href="#r0"/><use x="112" y="94" xlink:href="#r0"/><use x="115" y="94" xlink:href="#r0"/><use x="25" y="97" xlink:href="#r0"/><use x="40" y="97" xlink:href="#r0"/><use x="43" y="97" xlink:href="#r0"/><use x="61" y="97" xlink:href="#r0"/><use x="67" y="97" xlink:href="#r0"/><use x="76" y="97" xlink:href="#r0"/><use x="82" y="97" xlink:href="#r0"/><use x="85" y="97" xlink:href="#r0"/><use x="91" y="97" xlink:href="#r0"/><use x="94" y="97" xlink:href="#r0"/><use x="97" y="97" xlink:href="#r0"/><use x="100" y="97" xlink:href="#r0"/><use x="103" y="97" xlink:href="#r0"/><use x="106" y="97" xlink:href="#r0"/><use x="109" y="97" xlink:href="#r0"/><use x="121" y="97" xlink:href="#r0"/><use x="49" y="100" xlink:href="#r0"/><use x="52" y="100" xlink:href="#r0"/><use x="55" y="100" xlink:href="#r0"/><use x="76" y="100" xlink:href="#r0"/><use x="79" y="100" xlink:href="#r0"/><use x="82" y="100" xlink:href="#r0"/><use x="97" y="100" xlink:href="#r0"/><use x="109" y="100" xlink:href="#r0"/><use x="121" y="100" xlink:href="#r0"/><use x="25" y="103" xlink:href="#r0"/><use x="28" y="103" xlink:href="#r0"/><use x="31" y="103" xlink:href="#r0"/><use x="34" y="103" xlink:href="#r0"/><use x="37" y="103" xlink:href="#r0"/><use x="40" y="103" xlink:href="#r0"/><use x="43" y="103" xlink:href="#r0"/><use x="49" y="103" xlink:href="#r0"/><use x="55" y="103" xlink:href="#r0"/><use x="58" y="103" xlink:href="#r0"/><use x="61" y="103" xlink:href="#r0"/><use x="70" y="103" xlink:href="#r0"/><use x="76" y="103" xlink:href="#r0"/><use x="79" y="103" xlink:href="#r0"/><use x="85" y="103" xlink:href="#r0"/><use x="91" y="103" xlink:href="#r0"/><use x="94" y="103" xlink:href="#r0"/><use x="97" y="103" xlink:href="#r0"/><use x="103" y="103" xlink:href="#r0"/><use x="109" y="103" xlink:href="#r0"/><use x="112" y="103" xlink:href="#r0"/><use x="115" y="103" xlink:href="#r0"/><use x="118" y="103" xlink:href="#r0"/><use x="25" y="106" xlink:href="#r0"/><use x="43" y="106" xlink:href="#r0"/><use x="52" y="106" xlink:href="#r0"/><use x="55" y="106" xlink:href="#r0"/><use x="58" y="106" xlink:href="#r0"/><use x="67" y="106" xlink:href="#r0"/><use x="70" y="106" xlink:href="#r0"/><use x="73" y="106" xlink:href="#r0"/><use x="82" y="106" xlink:href="#r0"/><use x="85" y="106" xlink:href="#r0"/><use x="88" y="106" xlink:href="#r0"/><use x="97" y="106" xlink:href="#r0"/><use x="109" y="106" xlink:href="#r0"/><use x="112" y="106" xlink:href="#r0"/><use x="115" y="106" xlink:href="#r0"/><use x="121" y="106" xlink:href="#r0"/><use x="25" y="109" xlink:href="#r0"/><use x="31" y="109" xlink:href="#r0"/><use x="34" y="109" xlink:href="#r0"/><use x="37" y="109" xlink:href="#r0"/><use x="43" y="109" xlink:href="#r0"/><use x="49" y="109" xlink:href="#r0"/><use x="55" y="109" xlink:href="#r0"/><use x="58" y="109" xlink:href="#r0"/><use x="70" y="109" xlink:href="#r0"/><use x="76" y="109" xlink:href="#r0"/><use x="82" y="109" xlink:href="#r0"/><use x="97" y="109" xlink:href="#r0"/><use x="100" y="109" xlink:href="#r0"/><use x="103" y="109" xlink:href="#r0"/><use x="106" y="109" xlink:href="#r0"/><use x="109" y="109" xlink:href="#r0"/><use x="112" y="109" xlink:href="#r0"/><use x="121" y="109" xlink:href="#r0"/><use x="25" y="112" xlink:href="#r0"/><use x="31" y="112" xlink:href="#r0"/><use x="34" y="112" xlink:href="#r0"/><use x="37" y="112" xlink:href="#r0"/><use x="43" y="112" xlink:href="#r0"/><use x="49" y="112" xlink:href="#r0"/><use x="61" y="112" xlink:href="#r0"/><use x="64" y="112" xlink:href="#r0"/><use x="67" y="112" xlink:href="#r0"/><use x="73" y="112" xlink:href="#r0"/><use x="79" y="112" xlink:href="#r0"/><use x="82" y="112" xlink:href="#r0"/><use x="85" y="112" xlink:href="#r0"/><use x="91" y="112" xlink:href="#r0"/><use x="97" y="112" xlink:href="#r0"/><use x="100" y="112" xlink:href="#r0"/><use x="106" y="112" xlink:href="#r0"/><use x="109" y="112" xlink:href="#r0"/><use x="115" y="112" xlink:href="#r0"/><use x="118" y="112" xlink:href="#r0"/><use x="121" y="112" xlink:href="#r0"/><use x="25" y="115" xlink:href="#r0"/><use x="31" y="115" xlink:href="#r0"/><use x="34" y="115" xlink:href="#r0"/><use x="37" y="115" xlink:href="#r0"/><use x="43" y="115" xlink:href="#r0"/><use x="49" y="115" xlink:href="#r0"/><use x="52" y="115" xlink:href="#r0"/><use x="55" y="115" xlink:href="#r0"/><use x="64" y="115" xlink:href="#r0"/><use x="67" y="115" xlink:href="#r0"/><use x="70" y="115" xlink:href="#r0"/><use x="73" y="115" xlink:href="#r0"/><use x="76" y="115" xlink:href="#r0"/><use x="79" y="115" xlink:href="#r0"/><use x="91" y="115" xlink:href="#r0"/><use x="94" y="115" xlink:href="#r0"/><use x="97" y="115" xlink:href="#r0"/><use x="100" y="115" xlink:href="#r0"/><use x="103" y="115" xlink:href="#r0"/><use x="112" y="115" xlink:href="#r0"/><use x="25" y="118" xlink:href="#r0"/><use x="43" y="118" xlink:href="#r0"/><use x="49" y="118" xlink:href="#r0"/><use x="61" y="118" xlink:href="#r0"/><use x="64" y="118" xlink:href="#r0"/><use x="70" y="118" xlink:href="#r0"/><use x="73" y="118" xlink:href="#r0"/><use x="79" y="118" xlink:href="#r0"/><use x="82" y="118" xlink:href="#r0"/><use x="85" y="118" xlink:href="#r0"/><use x="88" y="118" xlink:href="#r0"/><use x="91" y="118" xlink:href="#r0"/><use x="94" y="118" xlink:href="#r0"/><use x="106" y="118" xlink:href="#r0"/><use x="112" y="118" xlink:href="#r0"/><use x="115" y="118" xlink:href="#r0"/><use x="25" y="121" xlink:href="#r0"/><use x="28" y="121" xlink:href="#r0"/><use x="31" y="121" xlink:href="#r0"/><use x="34" y="121" xlink:href="#r0"/><use x="37" y="121" xlink:href="#r0"/><use x="40" y="121" xlink:href="#r0"/><use x="43" y="121" xlink:href="#r0"/><use x="49" y="121" xlink:href="#r0"/><use x="55" y="121" xlink:href="#r0"/><use x="61" y="121" xlink:href="#r0"/><use x="67" y="121" xlink:href="#r0"/><use x="70" y="121" xlink:href="#r0"/><use x="73" y="121" xlink:href="#r0"/><use x="76" y="121" xlink:href="#r0"/><use x="82" y="121" xlink:href="#r0"/><use x="91" y="121" xlink:href="#r0"/><use x="94" y="121" xlink:href="#r0"/><use x="97" y="121" xlink:href="#r0"/><use x="100" y="121" xlink:href="#r0"/><use x="103" y="121" xlink:href="#r0"/><use x="106" y="121" xlink:href="#r0"/><use x="112" y="121" xlink:href="#r0"/><use x="118" y="121" xlink:href="#r0"/></svg>